<svg width="20" height="24" viewBox="0 0 20 24" fill="none" xmlns="http://www.w3.org/2000/svg">
<path d="M6.10011 10.7778V4.66667C6.10011 3.69421 6.51099 2.76158 7.24237 2.07394C7.97375 1.38631 8.96571 1 10 1C11.0344 1 12.0263 1.38631 12.7577 2.07394C13.4891 2.76158 13.9 3.69421 13.9 4.66667V10.7778M17.6959 23H2.30414C2.12431 23.0005 1.94632 22.966 1.78141 22.8985C1.61651 22.8311 1.46828 22.7322 1.3461 22.6082C1.22393 22.4841 1.13045 22.3376 1.0716 22.1778C1.01274 22.018 0.98978 21.8485 1.00417 21.68L2.10915 8.23555C2.13534 7.92864 2.28379 7.64232 2.5248 7.43385C2.76581 7.22538 3.08163 7.11012 3.40912 7.11111H16.5909C16.9184 7.11012 17.2342 7.22538 17.4752 7.43385C17.7162 7.64232 17.8647 7.92864 17.8909 8.23555L18.9958 21.68C19.0102 21.8485 18.9873 22.018 18.9284 22.1778C18.8695 22.3376 18.7761 22.4841 18.6539 22.6082C18.5317 22.7322 18.3835 22.8311 18.2186 22.8985C18.0537 22.966 17.8757 23.0005 17.6959 23Z" stroke="#40393B" stroke-linecap="round" stroke-linejoin="round"/>
</svg>
